HIERARCHY
ROOT RootJoint
{
    OFFSET   0.000000   0.000000   0.000000
    CHANNELS 6 Xposition Yposition Zposition Xrotation Yrotation Zrotation
    JOINT pelvis_lowerback
    {
        OFFSET   0.000000   0.093605   0.000000
        CHANNELS 3 Xrotation Yrotation Zrotation
        JOINT lowerback_torso
        {
            OFFSET   0.000000   0.100000   0.000000
            CHANNELS 3 Xrotation Yrotation Zrotation
            JOINT torso_head
            {
                OFFSET   0.000000   0.282350   0.000000
                CHANNELS 3 Xrotation Yrotation Zrotation
                End Site
                {
                    OFFSET   0.000000   0.192650   0.000000
                }
            }
            JOINT rTorso_Clavicle
            {
                OFFSET  -0.001000   0.157500   0.000000
                CHANNELS 3 Xrotation Yrotation Zrotation
                JOINT rShoulder
                {
                    OFFSET  -0.117647   0.000000   0.000000
                    CHANNELS 3 Xrotation Yrotation Zrotation
                    JOINT rElbow
                    {
                        OFFSET  -0.245000   0.000000   0.000000
                        CHANNELS 3 Xrotation Yrotation Zrotation
                        JOINT rWrist
                        {
                            OFFSET  -0.240000   0.000000   0.000000
                            CHANNELS 3 Xrotation Yrotation Zrotation
                            End Site
                            {
                                OFFSET  -0.116353  -0.002500   0.000000
                            }
                        }
                    }
                }
            }
            JOINT lTorso_Clavicle
            {
                OFFSET   0.001000   0.157500   0.000000
                CHANNELS 3 Xrotation Yrotation Zrotation
                JOINT lShoulder
                {
                    OFFSET   0.117647   0.000000   0.000000
                    CHANNELS 3 Xrotation Yrotation Zrotation
                    JOINT lElbow
                    {
                        OFFSET   0.245000   0.000000   0.000000
                        CHANNELS 3 Xrotation Yrotation Zrotation
                        JOINT lWrist
                        {
                            OFFSET   0.240000   0.000000   0.000000
                            CHANNELS 3 Xrotation Yrotation Zrotation
                            End Site
                            {
                                OFFSET   0.116353  -0.002500   0.000000
                            }
                        }
                    }
                }
            }
        }
    }
    JOINT rHip
    {
        OFFSET  -0.100000  -0.051395   0.000000
        CHANNELS 3 Xrotation Yrotation Zrotation
        JOINT rKnee
        {
            OFFSET   0.000000  -0.410000   0.000000
            CHANNELS 3 Xrotation Yrotation Zrotation
            JOINT rAnkle
            {
                OFFSET   0.000000  -0.390000   0.000000
                CHANNELS 3 Xrotation Yrotation Zrotation
                JOINT rToeJoint
                {
                    OFFSET   0.000000  -0.050000   0.130000
                    CHANNELS 3 Xrotation Yrotation Zrotation
                    End Site
                    {
                        OFFSET  -0.010000   0.002000   0.060000
                    }
                }
            }
        }
    }
    JOINT lHip
    {
        OFFSET   0.100000  -0.051395   0.000000
        CHANNELS 3 Xrotation Yrotation Zrotation
        JOINT lKnee
        {
            OFFSET   0.000000  -0.410000   0.000000
            CHANNELS 3 Xrotation Yrotation Zrotation
            JOINT lAnkle
            {
                OFFSET   0.000000  -0.390000   0.000000
                CHANNELS 3 Xrotation Yrotation Zrotation
                JOINT lToeJoint
                {
                    OFFSET   0.000000  -0.050000   0.130000
                    CHANNELS 3 Xrotation Yrotation Zrotation
                    End Site
                    {
                        OFFSET   0.010000   0.002000   0.060000
                    }
                }
            }
        }
    }
}
MOTION
Frames: 17
Frame Time:   0.008333
 -2.376719   0.925631   3.975860   0.000000   0.000000   0.000000   0.000000   0.000000   0.000000   0.000000   0.000000   0.000000   0.000000   0.000000   0.000000   0.000000   0.000000   0.000000   0.000000   0.000000   0.000000   0.000000   0.000000   0.000000   0.000000   0.000000   0.000000   0.000000   0.000000   0.000000   0.000000   0.000000   0.000000   0.000000   0.000000   0.000000   0.000000   0.000000   0.000000   0.000000   0.000000   0.000000   0.000000   0.000000   0.000000   0.000000   0.000000   0.000000   0.000000   0.000000   0.000000   0.000000   0.000000   0.000000   0.000000   0.000000   0.000000   0.000000   0.000000   0.000000   0.000000   0.000000   0.000000
 -2.376526   0.926039   3.976328  -0.154013   0.138178   0.003680   0.041096  -0.039475   0.021320   0.123913  -0.156180   0.019943  -0.002692   0.073772  -0.012858   0.119634  -0.325116  -0.021009   0.347422   0.114716   2.294618   0.020764   1.023656  -0.004410   0.289956  -0.279415  -2.657373   0.167558   0.363074  -0.164669   0.876751  -0.087166  -2.189420   0.019774  -0.976079   0.009117   0.364047   0.231658   2.509203   0.057089  -0.004436  -0.179620   0.603609   0.000932   0.000699  -0.845816  -0.326476  -0.027778  -0.136125  -0.000240   0.000227   0.038383  -0.337511   0.130465   0.612541  -0.000723  -0.001061  -0.866988  -0.026416   0.099599   0.267268  -0.000543  -0.000527
 -2.376272   0.926774   3.977083  -0.333979   0.292158   0.007054   0.037772  -0.091048   0.056482   0.246919  -0.326727   0.045338   0.012066   0.143610  -0.019309   0.235875  -0.646713   0.618150   0.680571   0.249804   5.113125   0.047139   2.010381  -0.006925   0.602149  -0.275433  -4.627844   0.336648   0.703388  -1.005187   1.733210  -0.223404  -4.922216   0.045049  -1.916937   0.015310   0.765924   0.204372   4.302205   0.158659  -0.009801  -0.496871   1.262467   0.002576   0.001372  -1.638043  -0.635634  -0.059977  -0.309078  -0.000712   0.000418   0.147908  -0.662894   0.380337   1.273581  -0.002065  -0.001804  -1.679514  -0.053044   0.192390   0.467401  -0.001040  -0.000765
 -2.375989   0.927461   3.978024  -0.501632   0.442767   0.009158  -0.006958  -0.149399   0.097852   0.335258  -0.497884   0.073999   0.024038   0.208819  -0.022255   0.349297  -0.951036   1.674092   0.999513   0.394930   8.272376   0.072470   2.931858  -0.007887   0.904927  -0.216917  -5.836341   0.501317   1.011723  -2.259134   2.566145  -0.406224  -8.004466   0.069414  -2.797750   0.019009   1.155460   0.114447   5.324415   0.270565  -0.017783  -0.921197   1.900130   0.004454   0.001796  -2.376853  -0.925434  -0.094987  -0.471729  -0.001218   0.000531   0.293512  -0.962692   0.731376   1.916609  -0.003667  -0.002202  -2.437415  -0.077442   0.279384   0.645812  -0.001518  -0.000878
 -2.375696   0.927829   3.979082  -0.652100   0.580881   0.009752  -0.081590  -0.211165   0.141836   0.391281  -0.665581   0.104600   0.030634   0.269736  -0.023591   0.463641  -1.241169   2.974089   1.307150   0.549150  11.661798   0.093914   3.788699  -0.007879   1.191722  -0.162521  -6.478653   0.663847   1.295408  -3.747365   3.377862  -0.636715 -11.319323   0.090126  -3.619480   0.021036   1.526707   0.011695   5.783235   0.381608  -0.028111  -1.428667   2.502766   0.006281   0.001958  -3.066747  -1.196840  -0.131990  -0.625316  -0.001704   0.000601   0.462195  -1.238490   1.165104   2.530095  -0.005293  -0.002375  -3.144919  -0.099816   0.361043   0.804746  -0.001929  -0.000919
 -2.375415   0.927653   3.980202  -0.787471   0.702462   0.009898  -0.175901  -0.274214   0.184165   0.423503  -0.827636   0.131120   0.032946   0.326575  -0.022701   0.582397  -1.519875   4.441779   1.596042   0.707604  15.113000   0.110067   4.584330  -0.007266   1.461039  -0.125048  -6.675100   0.827176   1.560224  -5.406394   4.129211  -0.901333 -14.641666   0.105661  -4.385850   0.021732   1.879581  -0.095988   5.778912   0.487484  -0.040179  -1.999337   3.068655   0.007894   0.001909  -3.711262  -1.450834  -0.170328  -0.770589  -0.002136   0.000643   0.647138  -1.492374   1.664586   3.112645  -0.006806  -0.002406  -3.805484  -0.120502   0.437684   0.946274  -0.002253  -0.000919
 -2.375143   0.926758   3.981341  -0.910651   0.806104   0.008432  -0.281900  -0.337354   0.225585   0.439690  -0.983060   0.158741   0.032365   0.379591  -0.022830   0.707696  -1.788280   6.014257   1.860566   0.864981  18.482388   0.120618   5.322922  -0.006306   1.713446  -0.105256  -6.533484   0.991972   1.809387  -7.150249   4.816280  -1.190944 -17.882040   0.115870  -5.100430   0.021559   2.213802  -0.205220   5.458579   0.586019  -0.053317  -2.616466   3.598636   0.009223   0.001707  -4.313431  -1.688330  -0.209401  -0.907352  -0.002496   0.000665   0.843384  -1.726142   2.214637   3.664776  -0.008117  -0.002349  -4.422201  -0.139720   0.509629   1.072654  -0.002484  -0.000895
 -2.374803   0.924398   3.981879  -0.841007   0.852328  -0.003692  -0.384917  -0.371180   0.322591   0.344916  -1.125244   0.153825  -0.060118   0.345871  -0.058697   0.891169  -2.027003   6.935511   2.308238   1.078814  21.610338   0.130319   6.244410  -0.008148   1.903865  -0.117745  -5.284002   1.285147   2.054630  -8.040825   5.388695  -1.538500 -21.212276   0.120627  -5.850278   0.022260   2.483360  -0.455183   4.108635   0.388877  -0.259712  -3.176527   4.112171   0.009896   0.000372  -4.521159  -2.014200  -0.072911  -0.828484  -0.001686   0.000205   0.883755  -1.841049   2.706492   3.669827  -0.006515  -0.001882  -4.760346  -0.163502   0.516440   1.247314  -0.002730  -0.000848
 -2.374445   0.920828   3.982048  -0.751820   0.902061  -0.015523  -0.420152  -0.407008   0.424724   0.272411  -1.258348   0.150258  -0.154510   0.310138  -0.093590   1.054392  -2.221100   7.558960   2.707135   1.320339  24.368640   0.131396   7.118635  -0.009804   2.104206  -0.040106  -4.167943   1.551203   2.261595  -8.643923   5.899978  -1.899102 -24.172976   0.118838  -6.557103   0.022658   2.743224  -0.759170   2.853660   0.155342  -0.463085  -3.683932   4.568276   0.009923  -0.000574  -4.709995  -2.322026   0.052905  -0.720062  -0.000966  -0.000270   0.844826  -1.947810   3.137277   3.573209  -0.004854  -0.001488  -5.079624  -0.186005   0.522271   1.410748  -0.002794  -0.000779
 -2.374072   0.920596   3.982488  -0.782048   0.885787   0.109029  -0.391047  -0.412794   0.419258   0.264300  -1.360256   0.103653  -0.223509   0.277178  -0.129217   1.201863  -2.380976   8.262305   3.062107   1.574765  26.935513   0.129573   7.934459  -0.010626   2.302243   0.042452  -3.353314   1.797632   2.450663  -9.310828   6.357323  -2.256982 -26.912227   0.114894  -7.209413   0.022329   2.989567  -1.010337   1.907869  -0.095774  -0.760751  -3.907307   5.106267   0.008253  -0.002138  -4.622086  -2.702344   0.358320  -0.533050  -0.001075  -0.001385   0.787899  -1.927123   2.996224   3.769279  -0.003863  -0.001158  -4.945404  -0.108464   0.340127   1.629278  -0.001859  -0.000458
 -2.373786   0.920492   3.983010  -0.779984   0.880576   0.223663  -0.386163  -0.423842   0.435090   0.251137  -1.455401   0.056121  -0.287720   0.245805  -0.165479   1.342362  -2.532986   8.753684   3.384250   1.826772  29.278251   0.123822   8.701430  -0.010876   2.492519   0.154586  -2.555111   2.030609   2.632866  -9.781310   6.771355  -2.606695 -29.424837   0.108260  -7.823221   0.021469   3.222263  -1.281189   0.976318  -0.305218  -0.942341  -4.086119   5.556428   0.006752  -0.002580  -4.739847  -2.966575   0.467953  -0.401390  -0.000908  -0.001644   0.763024  -1.997115   2.851063   3.894213  -0.003066  -0.001000  -5.058361  -0.123021   0.318189   1.805306  -0.001412  -0.000495
 -2.373595   0.920415   3.983515  -0.748635   0.891313   0.327556  -0.382220  -0.436423   0.462212   0.232433  -1.545378   0.016299  -0.350746   0.216291  -0.198308   1.471634  -2.674166   9.106555   3.674083   2.071485  31.392668   0.115669   9.418080  -0.010828   2.674410   0.269863  -1.898382   2.245233   2.802119 -10.121815   7.143998  -2.943885 -31.702662   0.100007  -8.396028   0.020275   3.441891  -1.544421   0.182000  -0.509079  -1.099584  -4.243128   5.943953   0.005497  -0.002660  -4.869042  -3.207601   0.561021  -0.298264  -0.000763  -0.001677   0.732330  -2.074223   2.723479   3.968894  -0.002441  -0.000840  -5.194633  -0.142799   0.306356   1.947249  -0.001089  -0.000498
 -2.373497   0.920350   3.983989  -0.699423   0.919039   0.422157  -0.370258  -0.448907   0.496853   0.216778  -1.629804  -0.015699  -0.410360   0.188652  -0.227926   1.589420  -2.803812   9.356237   3.934346   2.308291  33.308661   0.106335  10.087448  -0.010638   2.848248   0.381608  -1.380859   2.441749   2.958174 -10.362810   7.479161  -3.267757 -33.772860   0.091052  -8.930277   0.018893   3.649663  -1.792897  -0.472956  -0.709071  -1.244789  -4.381607   6.290405   0.004460  -0.002562  -4.994733  -3.432780   0.647389  -0.206252  -0.000647  -0.001628   0.693790  -2.148497   2.613279   4.014486  -0.001949  -0.000689  -5.336066  -0.162045   0.297115   2.074731  -0.000846  -0.000468
 -2.373572   0.920308   3.984586  -0.654564   0.938621   0.482190  -0.342460  -0.446963   0.484610   0.177620  -1.640438   0.029873  -0.425617   0.109686  -0.257781   1.667725  -3.004355   9.338986   4.240822   2.546950  34.762008   0.095201  10.797956  -0.010598   2.978492   0.533871  -0.330305   2.608067   3.108225 -10.272934   7.689529  -3.592106 -35.542443   0.081944  -9.536034   0.017082   3.834990  -2.015470  -1.548470  -0.774986  -1.373450  -4.457254   6.377263   0.003566  -0.002141  -4.935341  -3.475856   0.683209  -0.032514  -0.000547  -0.001539   0.735232  -2.178221   2.554916   3.908940  -0.001558  -0.000542  -5.309810  -0.133960   0.320528   2.136245  -0.000689  -0.000366
 -2.373754   0.920298   3.985154  -0.581720   0.953851   0.525676  -0.320785  -0.438616   0.467050   0.128060  -1.644418   0.074572  -0.439895   0.036550  -0.282835   1.723917  -3.184375   9.108190   4.513321   2.774499  35.958761   0.082801  11.466048  -0.010272   3.103855   0.713531   0.497077   2.745390   3.238461  -9.983282   7.870953  -3.895429 -37.046577   0.071895 -10.106949   0.015282   4.006372  -2.264952  -2.409586  -0.840521  -1.490878  -4.506518   6.407035   0.002850  -0.001741  -4.893507  -3.513251   0.714793   0.137882  -0.000478  -0.001441   0.763149  -2.205734   2.520801   3.774871  -0.001236  -0.000418  -5.300951  -0.107656   0.345711   2.202957  -0.000570  -0.000285
 -2.374026   0.920307   3.985687  -0.491529   0.964192   0.558249  -0.295946  -0.428507   0.445188   0.076905  -1.646577   0.110915  -0.454472  -0.031294  -0.305638   1.759595  -3.342267   8.736539   4.754780   2.992139  36.959776   0.070486  12.092674  -0.009781   3.224040   0.896416   1.071888   2.860937   3.352142  -9.564183   8.030419  -4.176060 -38.340330   0.061942 -10.639943   0.013626   4.169041  -2.502849  -3.028335  -0.911761  -1.601028  -4.537559   6.410194   0.002280  -0.001395  -4.864223  -3.548834   0.744754   0.292571  -0.000429  -0.001335   0.781009  -2.233112   2.503652   3.625715  -0.000970  -0.000310  -5.307202  -0.083799   0.371499   2.263615  -0.000476  -0.000226
 -2.374378   0.920337   3.986185  -0.387289   0.989183   0.578781  -0.266770  -0.424955   0.421374   0.027845  -1.653091   0.139453  -0.468395  -0.094776  -0.326984   1.780335  -3.483619   8.275709   4.970710   3.197625  37.807970   0.059004  12.679085  -0.009227   3.339249   1.073621   1.446592   2.957764   3.450942  -9.065844   8.170793  -4.436697 -39.466896   0.052693 -11.137251   0.012127   4.324744  -2.721785  -3.455662  -0.980944  -1.688486  -4.546612   6.391043   0.001828  -0.001106  -4.870637  -3.564128   0.778204   0.229274  -0.000316  -0.001026   0.785472  -2.262024   2.505247   3.467822  -0.000748  -0.000239  -5.324828  -0.062704   0.398086   2.318871  -0.000403  -0.000174
